<svg width="147" height="29" viewBox="0 0 147 29" fill="none" xmlns="http://www.w3.org/2000/svg">
<path d="M21.024 2.832C21.024 3.10933 20.9707 3.38667 20.864 3.664L14.656 19.792C14.3787 20.5173 13.9093 21.104 13.248 21.552C12.608 21.9787 11.9147 22.192 11.168 22.192H10.72C9.97333 22.192 9.26933 21.9787 8.608 21.552C7.968 21.104 7.50933 20.5173 7.232 19.792L0.992 3.664C0.885333 3.45067 0.832 3.17333 0.832 2.832C0.832 2.256 1.04533 1.72267 1.472 1.232C1.92 0.719999 2.50667 0.463999 3.232 0.463999C3.72267 0.463999 4.18133 0.602666 4.608 0.879999C5.03467 1.15733 5.33333 1.54133 5.504 2.032L10.944 17.072L16.352 2.032C16.5227 1.56267 16.8107 1.18933 17.216 0.911999C17.6427 0.613332 18.1013 0.463999 18.592 0.463999C19.3173 0.463999 19.904 0.709332 20.352 1.2C20.8 1.66933 21.024 2.21333 21.024 2.832ZM25.907 0.0479984C26.5897 0.0479984 27.1657 0.282665 27.635 0.751999C28.1043 1.2 28.339 1.76533 28.339 2.448C28.339 3.13067 28.1043 3.70667 27.635 4.176C27.1657 4.64533 26.5897 4.88 25.907 4.88C25.2457 4.88 24.6697 4.64533 24.179 4.176C23.7097 3.70667 23.475 3.13067 23.475 2.448C23.475 1.76533 23.7097 1.2 24.179 0.751999C24.6697 0.282665 25.2457 0.0479984 25.907 0.0479984ZM27.955 20.176C27.955 20.7307 27.7523 21.2107 27.347 21.616C26.963 22 26.483 22.192 25.907 22.192C25.3523 22.192 24.8723 22 24.467 21.616C24.083 21.2107 23.891 20.7307 23.891 20.176V8.336C23.891 7.78133 24.083 7.312 24.467 6.928C24.8723 6.544 25.3737 6.352 25.971 6.352C26.5257 6.352 26.995 6.544 27.379 6.928C27.763 7.312 27.955 7.78133 27.955 8.336V20.176ZM46.7048 20.176C46.7048 20.7307 46.5021 21.2107 46.0968 21.616C45.7128 22 45.2221 22.192 44.6248 22.192C44.0701 22.192 43.5901 22 43.1848 21.616C42.8008 21.2107 42.6088 20.7307 42.6088 20.176V20.016C41.9901 20.784 41.2754 21.3707 40.4648 21.776C39.6541 22.1813 38.7794 22.384 37.8408 22.384C36.8594 22.384 35.9528 22.2027 35.1208 21.84C34.2888 21.4773 33.5634 20.9547 32.9448 20.272C32.3474 19.5893 31.8674 18.7467 31.5048 17.744C31.1634 16.72 30.9928 15.568 30.9928 14.288C30.9928 13.0293 31.1634 11.8987 31.5048 10.896C31.8461 9.89333 32.3154 9.04 32.9128 8.336C33.5314 7.632 34.2568 7.09867 35.0888 6.736C35.9421 6.352 36.8594 6.16 37.8408 6.16C38.7581 6.16 39.6221 6.36267 40.4328 6.768C41.2648 7.152 41.9901 7.73867 42.6088 8.528V2.48C42.6088 1.92533 42.8008 1.456 43.1848 1.072C43.5901 0.666665 44.0914 0.463999 44.6888 0.463999C45.2434 0.463999 45.7128 0.666665 46.0968 1.072C46.5021 1.456 46.7048 1.92533 46.7048 2.48V20.176ZM42.6088 17.008V11.536C42.2674 11.024 41.7661 10.608 41.1048 10.288C40.4434 9.94667 39.7714 9.776 39.0888 9.776C38.5128 9.776 37.9794 9.88267 37.4888 10.096C37.0194 10.3093 36.6141 10.6187 36.2728 11.024C35.9314 11.4293 35.6648 11.9093 35.4728 12.464C35.2808 13.0187 35.1848 13.6267 35.1848 14.288C35.1848 14.9493 35.2808 15.5573 35.4728 16.112C35.6648 16.6667 35.9314 17.1467 36.2728 17.552C36.6141 17.936 37.0194 18.2347 37.4888 18.448C37.9794 18.6613 38.5128 18.768 39.0888 18.768C39.7714 18.768 40.4434 18.608 41.1048 18.288C41.7661 17.9467 42.2674 17.52 42.6088 17.008ZM65.4228 13.712C65.4228 14.2027 65.2414 14.64 64.8787 15.024C64.5161 15.3867 64.0681 15.568 63.5348 15.568H53.9988C54.0628 16.0587 54.2014 16.528 54.4148 16.976C54.6494 17.4027 54.9481 17.776 55.3108 18.096C55.6948 18.416 56.1428 18.672 56.6548 18.864C57.1881 19.056 57.7854 19.152 58.4468 19.152C58.8734 19.152 59.3534 19.088 59.8868 18.96C60.4414 18.832 60.9641 18.64 61.4548 18.384C61.7108 18.256 61.9774 18.192 62.2548 18.192C62.6814 18.192 63.0761 18.3413 63.4388 18.64C63.8014 18.9387 63.9828 19.3333 63.9828 19.824C63.9828 20.3573 63.7481 20.7627 63.2788 21.04C62.5108 21.5093 61.6681 21.8507 60.7508 22.064C59.8548 22.2773 58.9374 22.384 57.9988 22.384C56.8254 22.384 55.7268 22.192 54.7028 21.808C53.7001 21.424 52.8254 20.88 52.0788 20.176C51.3534 19.472 50.7774 18.6187 50.3508 17.616C49.9454 16.6133 49.7428 15.4933 49.7428 14.256C49.7428 13.1467 49.9348 12.1013 50.3188 11.12C50.7241 10.1173 51.2788 9.25333 51.9828 8.528C52.6868 7.80267 53.5294 7.22667 54.5108 6.8C55.4921 6.37333 56.5694 6.16 57.7428 6.16C58.6174 6.16 59.4281 6.288 60.1748 6.544C60.9428 6.77867 61.6361 7.12 62.2548 7.568C62.8734 8.016 63.4068 8.57067 63.8548 9.232C64.3241 9.872 64.6974 10.5867 64.9748 11.376C65.0814 11.7387 65.1774 12.1227 65.2628 12.528C65.3694 12.9333 65.4228 13.328 65.4228 13.712ZM61.5508 12.816C61.5294 12.4533 61.4441 12.0693 61.2948 11.664C61.1454 11.2587 60.9214 10.896 60.6228 10.576C60.3241 10.2347 59.9294 9.95733 59.4388 9.744C58.9694 9.50933 58.4041 9.392 57.7428 9.392C57.1028 9.392 56.5481 9.49867 56.0788 9.712C55.6308 9.92533 55.2574 10.2027 54.9588 10.544C54.6601 10.864 54.4254 11.2267 54.2548 11.632C54.0841 12.0373 53.9774 12.432 53.9348 12.816H61.5508ZM83.7823 14.256C83.7823 15.3653 83.5903 16.4107 83.2063 17.392C82.8436 18.3733 82.3103 19.2373 81.6063 19.984C80.9023 20.7093 80.0383 21.296 79.0143 21.744C78.0116 22.1707 76.8703 22.384 75.5903 22.384C74.3103 22.384 73.1689 22.1707 72.1663 21.744C71.1636 21.296 70.3103 20.7093 69.6063 19.984C68.9023 19.2373 68.3583 18.3733 67.9743 17.392C67.6116 16.4107 67.4303 15.3653 67.4303 14.256C67.4303 13.168 67.6116 12.1333 67.9743 11.152C68.3583 10.1707 68.9023 9.31733 69.6063 8.592C70.3103 7.84533 71.1636 7.25867 72.1663 6.832C73.1689 6.384 74.3103 6.16 75.5903 6.16C76.8703 6.16 78.0116 6.384 79.0143 6.832C80.0383 7.25867 80.9023 7.84533 81.6063 8.592C82.3103 9.31733 82.8436 10.1707 83.2063 11.152C83.5903 12.1333 83.7823 13.168 83.7823 14.256ZM79.5583 14.256C79.5583 13.6587 79.4623 13.0933 79.2703 12.56C79.0996 12.0053 78.8436 11.5253 78.5023 11.12C78.1823 10.7147 77.7769 10.3947 77.2863 10.16C76.7956 9.904 76.2303 9.776 75.5903 9.776C74.9502 9.776 74.3849 9.904 73.8943 10.16C73.4249 10.3947 73.0196 10.7147 72.6783 11.12C72.3369 11.5253 72.0809 12.0053 71.9103 12.56C71.7396 13.0933 71.6543 13.6587 71.6543 14.256C71.6543 14.8747 71.7396 15.4613 71.9103 16.016C72.0809 16.5493 72.3369 17.0187 72.6783 17.424C73.0196 17.8293 73.4249 18.16 73.8943 18.416C74.3849 18.6507 74.9502 18.768 75.5903 18.768C76.2303 18.768 76.7956 18.6507 77.2863 18.416C77.7769 18.16 78.1823 17.8293 78.5023 17.424C78.8436 17.0187 79.0996 16.5493 79.2703 16.016C79.4623 15.4613 79.5583 14.8747 79.5583 14.256ZM102.477 14.288C102.477 15.568 102.296 16.72 101.933 17.744C101.592 18.7467 101.112 19.5893 100.493 20.272C99.8959 20.9547 99.1813 21.4773 98.3493 21.84C97.5173 22.2027 96.6106 22.384 95.6293 22.384C94.6906 22.384 93.8159 22.1813 93.0052 21.776C92.1946 21.3707 91.4799 20.784 90.8613 20.016V20.176C90.8613 20.7307 90.6586 21.2107 90.2533 21.616C89.8693 22 89.3893 22.192 88.8133 22.192C88.2586 22.192 87.7786 22 87.3733 21.616C86.9893 21.2107 86.7973 20.7307 86.7973 20.176V2.448C86.7973 1.89333 86.9893 1.424 87.3733 1.04C87.7786 0.655999 88.2799 0.463999 88.8773 0.463999C89.4319 0.463999 89.9013 0.655999 90.2853 1.04C90.6693 1.424 90.8613 1.89333 90.8613 2.448V8.528C91.4799 7.73867 92.1946 7.152 93.0052 6.768C93.8373 6.36267 94.7119 6.16 95.6293 6.16C96.6106 6.16 97.5173 6.352 98.3493 6.736C99.2026 7.09867 99.9279 7.632 100.525 8.336C101.144 9.04 101.624 9.89333 101.965 10.896C102.307 11.8987 102.477 13.0293 102.477 14.288ZM98.2853 14.288C98.2853 13.6267 98.1893 13.0187 97.9973 12.464C97.8053 11.9093 97.5386 11.4293 97.1973 11.024C96.8559 10.6187 96.4399 10.3093 95.9493 10.096C95.4799 9.88267 94.9466 9.776 94.3493 9.776C93.6879 9.776 93.0266 9.94667 92.3653 10.288C91.7039 10.6293 91.2026 11.056 90.8613 11.568V17.04C91.2026 17.5307 91.7039 17.9467 92.3653 18.288C93.0266 18.608 93.6879 18.768 94.3493 18.768C94.9466 18.768 95.4799 18.6613 95.9493 18.448C96.4399 18.2347 96.8559 17.936 97.1973 17.552C97.5386 17.1467 97.8053 16.6773 97.9973 16.144C98.1893 15.5893 98.2853 14.9707 98.2853 14.288ZM109.611 20.176C109.611 20.7307 109.409 21.2107 109.003 21.616C108.619 22 108.139 22.192 107.563 22.192C107.009 22.192 106.529 22 106.123 21.616C105.739 21.2107 105.547 20.7307 105.547 20.176V2.448C105.547 1.89333 105.739 1.424 106.123 1.04C106.529 0.655999 107.03 0.463999 107.627 0.463999C108.182 0.463999 108.651 0.655999 109.035 1.04C109.419 1.424 109.611 1.89333 109.611 2.448V20.176ZM129.001 14.256C129.001 15.3653 128.809 16.4107 128.425 17.392C128.062 18.3733 127.529 19.2373 126.825 19.984C126.121 20.7093 125.257 21.296 124.233 21.744C123.23 22.1707 122.089 22.384 120.809 22.384C119.529 22.384 118.388 22.1707 117.385 21.744C116.382 21.296 115.529 20.7093 114.825 19.984C114.121 19.2373 113.577 18.3733 113.193 17.392C112.83 16.4107 112.649 15.3653 112.649 14.256C112.649 13.168 112.83 12.1333 113.193 11.152C113.577 10.1707 114.121 9.31733 114.825 8.592C115.529 7.84533 116.382 7.25867 117.385 6.832C118.388 6.384 119.529 6.16 120.809 6.16C122.089 6.16 123.23 6.384 124.233 6.832C125.257 7.25867 126.121 7.84533 126.825 8.592C127.529 9.31733 128.062 10.1707 128.425 11.152C128.809 12.1333 129.001 13.168 129.001 14.256ZM124.777 14.256C124.777 13.6587 124.681 13.0933 124.489 12.56C124.318 12.0053 124.062 11.5253 123.721 11.12C123.401 10.7147 122.996 10.3947 122.505 10.16C122.014 9.904 121.449 9.776 120.809 9.776C120.169 9.776 119.604 9.904 119.113 10.16C118.644 10.3947 118.238 10.7147 117.897 11.12C117.556 11.5253 117.3 12.0053 117.129 12.56C116.958 13.0933 116.873 13.6587 116.873 14.256C116.873 14.8747 116.958 15.4613 117.129 16.016C117.3 16.5493 117.556 17.0187 117.897 17.424C118.238 17.8293 118.644 18.16 119.113 18.416C119.604 18.6507 120.169 18.768 120.809 18.768C121.449 18.768 122.014 18.6507 122.505 18.416C122.996 18.16 123.401 17.8293 123.721 17.424C124.062 17.0187 124.318 16.5493 124.489 16.016C124.681 15.4613 124.777 14.8747 124.777 14.256ZM146.704 20.944C146.704 22.416 146.448 23.6213 145.936 24.56C145.424 25.52 144.763 26.2667 143.952 26.8C143.141 27.3547 142.245 27.7387 141.264 27.952C140.283 28.1653 139.312 28.272 138.352 28.272C137.883 28.272 137.349 28.24 136.752 28.176C136.155 28.112 135.568 28.0053 134.992 27.856C134.416 27.7067 133.893 27.504 133.424 27.248C132.955 27.0133 132.603 26.7147 132.368 26.352C132.197 26.0747 132.112 25.776 132.112 25.456C132.112 24.9653 132.283 24.56 132.624 24.24C132.965 23.92 133.36 23.76 133.808 23.76C134.107 23.76 134.395 23.8347 134.672 23.984C135.227 24.3253 135.803 24.5707 136.4 24.72C137.019 24.8693 137.669 24.944 138.352 24.944C138.843 24.944 139.333 24.88 139.824 24.752C140.336 24.6453 140.795 24.4427 141.2 24.144C141.627 23.8453 141.968 23.44 142.224 22.928C142.48 22.4373 142.608 21.808 142.608 21.04V19.472C141.989 20.24 141.275 20.8373 140.464 21.264C139.675 21.6907 138.8 21.904 137.84 21.904C136.88 21.904 135.984 21.7333 135.152 21.392C134.32 21.0507 133.595 20.5493 132.976 19.888C132.379 19.2267 131.899 18.4053 131.536 17.424C131.195 16.4427 131.024 15.312 131.024 14.032C131.024 12.7733 131.195 11.6533 131.536 10.672C131.877 9.69067 132.347 8.86933 132.944 8.208C133.563 7.52533 134.288 7.01333 135.12 6.672C135.952 6.33067 136.859 6.16 137.84 6.16C138.779 6.16 139.653 6.36267 140.464 6.768C141.275 7.152 141.989 7.73867 142.608 8.528V8.368C142.608 7.81333 142.8 7.344 143.184 6.96C143.589 6.55467 144.091 6.352 144.688 6.352C145.243 6.352 145.712 6.55467 146.096 6.96C146.501 7.344 146.704 7.81333 146.704 8.368V20.944ZM142.608 16.528V11.536C142.437 11.28 142.224 11.0453 141.968 10.832C141.712 10.6187 141.424 10.4373 141.104 10.288C140.805 10.1173 140.485 9.98933 140.144 9.904C139.803 9.81867 139.461 9.776 139.12 9.776C138.544 9.776 138.011 9.872 137.52 10.064C137.051 10.256 136.645 10.544 136.304 10.928C135.963 11.2907 135.696 11.7387 135.504 12.272C135.312 12.784 135.216 13.3707 135.216 14.032C135.216 14.6933 135.312 15.2907 135.504 15.824C135.696 16.336 135.963 16.784 136.304 17.168C136.645 17.5307 137.051 17.808 137.52 18C138.011 18.192 138.544 18.288 139.12 18.288C139.461 18.288 139.803 18.2453 140.144 18.16C140.485 18.0747 140.805 17.9573 141.104 17.808C141.424 17.6373 141.712 17.4453 141.968 17.232C142.224 17.0187 142.437 16.784 142.608 16.528Z" fill="#558EF7"/>
</svg>
